<svg width="33" height="48" viewBox="0 0 33 48" fill="none" xmlns="http://www.w3.org/2000/svg">
<path d="M6.46955 38.3466C16.837 32.6639 20.6491 19.4913 21.5464 8.90094C21.789 6.03695 25.3157 4.79565 26.7415 7.29133C31.3201 15.3056 35.3053 27.1163 31.4403 38.638C27.1614 51.3932 14.8554 48.8377 5.88626 44.2545C3.55098 43.0612 4.16986 39.6071 6.46955 38.3466Z" fill="#161D21"/>
<path d="M0.236519 19.4884L0.706133 25.8813C0.857427 27.9409 3.55239 28.6089 4.64811 26.8585C5.03871 26.2344 5.72303 25.8555 6.4592 25.8555H8.52091C10.1778 25.8555 11.5209 24.5123 11.5209 22.8555V19.2686C11.5209 17.6118 10.1778 16.2686 8.52091 16.2686H3.22846C1.48503 16.2686 0.108794 17.7496 0.236519 19.4884Z" fill="#161D21"/>
</svg>
